<mxfile host="app.diagrams.net" agent="Mozilla/5.0 (Macintosh; Intel Mac OS X 10_15_7) AppleWebKit/537.36 (KHTML, like Gecko) Chrome/131.0.0.0 Safari/537.36" version="26.0.6">
  <diagram name="Page-1" id="sbiA7yvG_qwETqurrWAO">
    <mxGraphModel dx="1482" dy="738" grid="1" gridSize="10" guides="1" tooltips="1" connect="1" arrows="1" fold="1" page="1" pageScale="1" pageWidth="850" pageHeight="1100" math="0" shadow="0">
      <root>
        <mxCell id="0" />
        <mxCell id="1" parent="0" />
        <mxCell id="OPhc5zmEHg2Fb8m4xI22-1" value="" style="rounded=1;whiteSpace=wrap;html=1;labelPosition=center;verticalLabelPosition=middle;align=center;verticalAlign=middle;" vertex="1" parent="1">
          <mxGeometry x="50" y="129.95" width="180" height="200" as="geometry" />
        </mxCell>
        <mxCell id="OPhc5zmEHg2Fb8m4xI22-53" value="" style="rounded=1;whiteSpace=wrap;html=1;labelPosition=center;verticalLabelPosition=middle;align=center;verticalAlign=middle;" vertex="1" parent="1">
          <mxGeometry x="45" y="490" width="750" height="100" as="geometry" />
        </mxCell>
        <mxCell id="OPhc5zmEHg2Fb8m4xI22-36" style="edgeStyle=orthogonalEdgeStyle;rounded=0;orthogonalLoop=1;jettySize=auto;html=1;exitX=0.75;exitY=0;exitDx=0;exitDy=0;entryX=0.25;entryY=0;entryDx=0;entryDy=0;strokeColor=#999999;" edge="1" parent="1" source="OPhc5zmEHg2Fb8m4xI22-4" target="OPhc5zmEHg2Fb8m4xI22-28">
          <mxGeometry relative="1" as="geometry">
            <Array as="points">
              <mxPoint x="175" y="109.95" />
              <mxPoint x="385" y="109.95" />
            </Array>
          </mxGeometry>
        </mxCell>
        <mxCell id="OPhc5zmEHg2Fb8m4xI22-68" value="HTTPS:443:TCP" style="edgeLabel;html=1;align=center;verticalAlign=middle;resizable=0;points=[];" vertex="1" connectable="0" parent="OPhc5zmEHg2Fb8m4xI22-36">
          <mxGeometry x="-0.0419" y="1" relative="1" as="geometry">
            <mxPoint as="offset" />
          </mxGeometry>
        </mxCell>
        <mxCell id="OPhc5zmEHg2Fb8m4xI22-37" style="edgeStyle=orthogonalEdgeStyle;rounded=0;orthogonalLoop=1;jettySize=auto;html=1;exitX=0.75;exitY=0;exitDx=0;exitDy=0;entryX=0.25;entryY=0;entryDx=0;entryDy=0;strokeColor=#999999;" edge="1" parent="1" source="OPhc5zmEHg2Fb8m4xI22-28" target="OPhc5zmEHg2Fb8m4xI22-35">
          <mxGeometry relative="1" as="geometry">
            <Array as="points">
              <mxPoint x="455" y="109.95" />
              <mxPoint x="675" y="109.95" />
            </Array>
          </mxGeometry>
        </mxCell>
        <mxCell id="OPhc5zmEHg2Fb8m4xI22-69" value="HTTPS:443:TCP" style="edgeLabel;html=1;align=center;verticalAlign=middle;resizable=0;points=[];" vertex="1" connectable="0" parent="OPhc5zmEHg2Fb8m4xI22-37">
          <mxGeometry x="-0.0137" y="-1" relative="1" as="geometry">
            <mxPoint as="offset" />
          </mxGeometry>
        </mxCell>
        <mxCell id="OPhc5zmEHg2Fb8m4xI22-38" style="edgeStyle=orthogonalEdgeStyle;rounded=0;orthogonalLoop=1;jettySize=auto;html=1;exitX=0.75;exitY=0;exitDx=0;exitDy=0;entryX=0.25;entryY=0;entryDx=0;entryDy=0;strokeColor=#999999;" edge="1" parent="1" source="OPhc5zmEHg2Fb8m4xI22-35" target="OPhc5zmEHg2Fb8m4xI22-4">
          <mxGeometry relative="1" as="geometry">
            <Array as="points">
              <mxPoint x="745" y="99.95" />
              <mxPoint x="105" y="99.95" />
            </Array>
          </mxGeometry>
        </mxCell>
        <mxCell id="OPhc5zmEHg2Fb8m4xI22-39" style="edgeStyle=orthogonalEdgeStyle;rounded=0;orthogonalLoop=1;jettySize=auto;html=1;exitX=0.5;exitY=0;exitDx=0;exitDy=0;entryX=0.25;entryY=0;entryDx=0;entryDy=0;strokeColor=#999999;" edge="1" parent="1" source="OPhc5zmEHg2Fb8m4xI22-28" target="OPhc5zmEHg2Fb8m4xI22-4">
          <mxGeometry relative="1" as="geometry">
            <Array as="points">
              <mxPoint x="420" y="100" />
              <mxPoint x="105" y="100" />
            </Array>
          </mxGeometry>
        </mxCell>
        <mxCell id="OPhc5zmEHg2Fb8m4xI22-73" value="HTTPS:443:TCP" style="edgeLabel;html=1;align=center;verticalAlign=middle;resizable=0;points=[];" vertex="1" connectable="0" parent="OPhc5zmEHg2Fb8m4xI22-39">
          <mxGeometry x="-0.747" relative="1" as="geometry">
            <mxPoint x="10" as="offset" />
          </mxGeometry>
        </mxCell>
        <mxCell id="OPhc5zmEHg2Fb8m4xI22-56" style="edgeStyle=orthogonalEdgeStyle;rounded=0;orthogonalLoop=1;jettySize=auto;html=1;exitX=0.5;exitY=1;exitDx=0;exitDy=0;entryX=0;entryY=0.5;entryDx=0;entryDy=0;" edge="1" parent="1" source="OPhc5zmEHg2Fb8m4xI22-2" target="OPhc5zmEHg2Fb8m4xI22-42">
          <mxGeometry relative="1" as="geometry">
            <Array as="points">
              <mxPoint x="140" y="410" />
              <mxPoint x="50" y="410" />
              <mxPoint x="50" y="540" />
            </Array>
          </mxGeometry>
        </mxCell>
        <mxCell id="OPhc5zmEHg2Fb8m4xI22-62" style="edgeStyle=orthogonalEdgeStyle;rounded=0;orthogonalLoop=1;jettySize=auto;html=1;exitX=0.5;exitY=1;exitDx=0;exitDy=0;entryX=1;entryY=0.5;entryDx=0;entryDy=0;strokeColor=#999999;" edge="1" parent="1" source="OPhc5zmEHg2Fb8m4xI22-2" target="OPhc5zmEHg2Fb8m4xI22-45">
          <mxGeometry relative="1" as="geometry">
            <Array as="points">
              <mxPoint x="140" y="410" />
              <mxPoint x="790" y="410" />
              <mxPoint x="790" y="540" />
            </Array>
          </mxGeometry>
        </mxCell>
        <mxCell id="OPhc5zmEHg2Fb8m4xI22-65" value="TLS:443" style="edgeLabel;html=1;align=center;verticalAlign=middle;resizable=0;points=[];" vertex="1" connectable="0" parent="OPhc5zmEHg2Fb8m4xI22-62">
          <mxGeometry x="-0.84" y="-1" relative="1" as="geometry">
            <mxPoint as="offset" />
          </mxGeometry>
        </mxCell>
        <mxCell id="OPhc5zmEHg2Fb8m4xI22-2" value="Application A" style="rounded=1;whiteSpace=wrap;html=1;" vertex="1" parent="1">
          <mxGeometry x="70" y="219.95" width="140" height="80" as="geometry" />
        </mxCell>
        <mxCell id="OPhc5zmEHg2Fb8m4xI22-3" value="Containerized Application" style="text;html=1;align=center;verticalAlign=middle;resizable=0;points=[];autosize=1;strokeColor=none;fillColor=none;" vertex="1" parent="1">
          <mxGeometry x="60" y="299.95" width="160" height="30" as="geometry" />
        </mxCell>
        <mxCell id="OPhc5zmEHg2Fb8m4xI22-6" value="" style="edgeStyle=orthogonalEdgeStyle;rounded=0;orthogonalLoop=1;jettySize=auto;html=1;startArrow=classic;startFill=1;strokeColor=#B3B3B3;" edge="1" parent="1" source="OPhc5zmEHg2Fb8m4xI22-4">
          <mxGeometry relative="1" as="geometry">
            <mxPoint x="140" y="219.95" as="targetPoint" />
          </mxGeometry>
        </mxCell>
        <mxCell id="OPhc5zmEHg2Fb8m4xI22-7" value="Mesh Control &amp;amp; Data Plane" style="edgeLabel;html=1;align=center;verticalAlign=middle;resizable=0;points=[];" vertex="1" connectable="0" parent="OPhc5zmEHg2Fb8m4xI22-6">
          <mxGeometry x="-0.0355" relative="1" as="geometry">
            <mxPoint y="1" as="offset" />
          </mxGeometry>
        </mxCell>
        <mxCell id="OPhc5zmEHg2Fb8m4xI22-4" value="Istio Sidecar" style="rounded=1;whiteSpace=wrap;html=1;" vertex="1" parent="1">
          <mxGeometry x="70" y="139.95" width="140" height="40" as="geometry" />
        </mxCell>
        <mxCell id="OPhc5zmEHg2Fb8m4xI22-59" style="edgeStyle=orthogonalEdgeStyle;rounded=0;orthogonalLoop=1;jettySize=auto;html=1;exitX=1;exitY=0.5;exitDx=0;exitDy=0;entryX=0;entryY=0.5;entryDx=0;entryDy=0;strokeColor=#999999;" edge="1" parent="1" source="OPhc5zmEHg2Fb8m4xI22-42" target="OPhc5zmEHg2Fb8m4xI22-43">
          <mxGeometry relative="1" as="geometry" />
        </mxCell>
        <mxCell id="OPhc5zmEHg2Fb8m4xI22-42" value="Prometheus" style="rounded=1;whiteSpace=wrap;html=1;" vertex="1" parent="1">
          <mxGeometry x="65" y="520" width="140" height="40" as="geometry" />
        </mxCell>
        <mxCell id="OPhc5zmEHg2Fb8m4xI22-60" style="edgeStyle=orthogonalEdgeStyle;rounded=0;orthogonalLoop=1;jettySize=auto;html=1;exitX=1;exitY=0.5;exitDx=0;exitDy=0;entryX=0;entryY=0.5;entryDx=0;entryDy=0;strokeColor=#999999;" edge="1" parent="1" source="OPhc5zmEHg2Fb8m4xI22-43" target="OPhc5zmEHg2Fb8m4xI22-44">
          <mxGeometry relative="1" as="geometry" />
        </mxCell>
        <mxCell id="OPhc5zmEHg2Fb8m4xI22-43" value="Grafana" style="rounded=1;whiteSpace=wrap;html=1;" vertex="1" parent="1">
          <mxGeometry x="255" y="520" width="140" height="40" as="geometry" />
        </mxCell>
        <mxCell id="OPhc5zmEHg2Fb8m4xI22-44" value="Pager Platform" style="rounded=1;whiteSpace=wrap;html=1;" vertex="1" parent="1">
          <mxGeometry x="445" y="520" width="140" height="40" as="geometry" />
        </mxCell>
        <mxCell id="OPhc5zmEHg2Fb8m4xI22-61" style="edgeStyle=orthogonalEdgeStyle;rounded=0;orthogonalLoop=1;jettySize=auto;html=1;exitX=0;exitY=0.5;exitDx=0;exitDy=0;entryX=1;entryY=0.5;entryDx=0;entryDy=0;strokeColor=#999999;" edge="1" parent="1" source="OPhc5zmEHg2Fb8m4xI22-45" target="OPhc5zmEHg2Fb8m4xI22-44">
          <mxGeometry relative="1" as="geometry" />
        </mxCell>
        <mxCell id="OPhc5zmEHg2Fb8m4xI22-45" value="Logging Platform" style="rounded=1;whiteSpace=wrap;html=1;" vertex="1" parent="1">
          <mxGeometry x="635" y="520" width="140" height="40" as="geometry" />
        </mxCell>
        <mxCell id="OPhc5zmEHg2Fb8m4xI22-54" value="Observability Layer" style="text;html=1;align=center;verticalAlign=middle;resizable=0;points=[];autosize=1;strokeColor=none;fillColor=none;" vertex="1" parent="1">
          <mxGeometry x="355" y="560" width="130" height="30" as="geometry" />
        </mxCell>
        <mxCell id="OPhc5zmEHg2Fb8m4xI22-57" style="edgeStyle=orthogonalEdgeStyle;rounded=0;orthogonalLoop=1;jettySize=auto;html=1;exitX=0.5;exitY=1;exitDx=0;exitDy=0;entryX=0;entryY=0.5;entryDx=0;entryDy=0;" edge="1" parent="1" source="OPhc5zmEHg2Fb8m4xI22-24" target="OPhc5zmEHg2Fb8m4xI22-42">
          <mxGeometry relative="1" as="geometry">
            <Array as="points">
              <mxPoint x="420" y="410" />
              <mxPoint x="50" y="410" />
              <mxPoint x="50" y="540" />
            </Array>
          </mxGeometry>
        </mxCell>
        <mxCell id="OPhc5zmEHg2Fb8m4xI22-58" style="edgeStyle=orthogonalEdgeStyle;rounded=0;orthogonalLoop=1;jettySize=auto;html=1;exitX=0.5;exitY=1;exitDx=0;exitDy=0;entryX=0;entryY=0.5;entryDx=0;entryDy=0;strokeColor=#999999;" edge="1" parent="1" source="OPhc5zmEHg2Fb8m4xI22-31" target="OPhc5zmEHg2Fb8m4xI22-42">
          <mxGeometry relative="1" as="geometry">
            <Array as="points">
              <mxPoint x="710" y="410" />
              <mxPoint x="50" y="410" />
              <mxPoint x="50" y="540" />
            </Array>
          </mxGeometry>
        </mxCell>
        <mxCell id="OPhc5zmEHg2Fb8m4xI22-63" style="edgeStyle=orthogonalEdgeStyle;rounded=0;orthogonalLoop=1;jettySize=auto;html=1;exitX=0.5;exitY=1;exitDx=0;exitDy=0;entryX=1;entryY=0.5;entryDx=0;entryDy=0;strokeColor=#999999;" edge="1" parent="1" source="OPhc5zmEHg2Fb8m4xI22-24" target="OPhc5zmEHg2Fb8m4xI22-45">
          <mxGeometry relative="1" as="geometry">
            <Array as="points">
              <mxPoint x="420" y="410" />
              <mxPoint x="790" y="410" />
              <mxPoint x="790" y="540" />
            </Array>
          </mxGeometry>
        </mxCell>
        <mxCell id="OPhc5zmEHg2Fb8m4xI22-66" value="TLS:443" style="edgeLabel;html=1;align=center;verticalAlign=middle;resizable=0;points=[];" vertex="1" connectable="0" parent="OPhc5zmEHg2Fb8m4xI22-63">
          <mxGeometry x="-0.7628" y="1" relative="1" as="geometry">
            <mxPoint x="-1" y="-4" as="offset" />
          </mxGeometry>
        </mxCell>
        <mxCell id="OPhc5zmEHg2Fb8m4xI22-64" style="edgeStyle=orthogonalEdgeStyle;rounded=0;orthogonalLoop=1;jettySize=auto;html=1;exitX=0.5;exitY=1;exitDx=0;exitDy=0;entryX=1;entryY=0.5;entryDx=0;entryDy=0;strokeColor=#999999;" edge="1" parent="1" source="OPhc5zmEHg2Fb8m4xI22-31" target="OPhc5zmEHg2Fb8m4xI22-45">
          <mxGeometry relative="1" as="geometry">
            <Array as="points">
              <mxPoint x="710" y="410" />
              <mxPoint x="790" y="410" />
              <mxPoint x="790" y="540" />
            </Array>
          </mxGeometry>
        </mxCell>
        <mxCell id="OPhc5zmEHg2Fb8m4xI22-67" value="TLS:443" style="edgeLabel;html=1;align=center;verticalAlign=middle;resizable=0;points=[];" vertex="1" connectable="0" parent="OPhc5zmEHg2Fb8m4xI22-64">
          <mxGeometry x="-0.5626" relative="1" as="geometry">
            <mxPoint as="offset" />
          </mxGeometry>
        </mxCell>
        <mxCell id="OPhc5zmEHg2Fb8m4xI22-75" value="On-call Engineer" style="shape=umlActor;verticalLabelPosition=bottom;verticalAlign=top;html=1;outlineConnect=0;" vertex="1" parent="1">
          <mxGeometry x="500" y="620" width="30" height="60" as="geometry" />
        </mxCell>
        <mxCell id="OPhc5zmEHg2Fb8m4xI22-76" style="edgeStyle=orthogonalEdgeStyle;rounded=0;orthogonalLoop=1;jettySize=auto;html=1;exitX=0.5;exitY=1;exitDx=0;exitDy=0;entryX=0.5;entryY=0;entryDx=0;entryDy=0;entryPerimeter=0;strokeColor=#999999;" edge="1" parent="1" source="OPhc5zmEHg2Fb8m4xI22-44" target="OPhc5zmEHg2Fb8m4xI22-75">
          <mxGeometry relative="1" as="geometry" />
        </mxCell>
        <mxCell id="OPhc5zmEHg2Fb8m4xI22-77" value="&lt;font style=&quot;font-size: 21px;&quot;&gt;Foundational Microservices Architecture&lt;/font&gt;" style="text;html=1;align=center;verticalAlign=middle;resizable=0;points=[];autosize=1;strokeColor=none;fillColor=none;" vertex="1" parent="1">
          <mxGeometry x="225" y="13" width="400" height="40" as="geometry" />
        </mxCell>
        <mxCell id="OPhc5zmEHg2Fb8m4xI22-23" value="" style="rounded=1;whiteSpace=wrap;html=1;labelPosition=center;verticalLabelPosition=middle;align=center;verticalAlign=middle;" vertex="1" parent="1">
          <mxGeometry x="330" y="129.95" width="180" height="200" as="geometry" />
        </mxCell>
        <mxCell id="OPhc5zmEHg2Fb8m4xI22-24" value="Application B" style="rounded=1;whiteSpace=wrap;html=1;" vertex="1" parent="1">
          <mxGeometry x="350" y="219.95" width="140" height="80" as="geometry" />
        </mxCell>
        <mxCell id="OPhc5zmEHg2Fb8m4xI22-25" value="Containerized Application" style="text;html=1;align=center;verticalAlign=middle;resizable=0;points=[];autosize=1;strokeColor=none;fillColor=none;" vertex="1" parent="1">
          <mxGeometry x="340" y="299.95" width="160" height="30" as="geometry" />
        </mxCell>
        <mxCell id="OPhc5zmEHg2Fb8m4xI22-26" value="" style="edgeStyle=orthogonalEdgeStyle;rounded=0;orthogonalLoop=1;jettySize=auto;html=1;startArrow=classic;startFill=1;strokeColor=#B3B3B3;" edge="1" parent="1" source="OPhc5zmEHg2Fb8m4xI22-28">
          <mxGeometry relative="1" as="geometry">
            <mxPoint x="420" y="219.95" as="targetPoint" />
          </mxGeometry>
        </mxCell>
        <mxCell id="OPhc5zmEHg2Fb8m4xI22-27" value="Mesh Control &amp;amp; Data Plane" style="edgeLabel;html=1;align=center;verticalAlign=middle;resizable=0;points=[];" vertex="1" connectable="0" parent="OPhc5zmEHg2Fb8m4xI22-26">
          <mxGeometry x="-0.0355" relative="1" as="geometry">
            <mxPoint y="1" as="offset" />
          </mxGeometry>
        </mxCell>
        <mxCell id="OPhc5zmEHg2Fb8m4xI22-28" value="Istio Sidecar" style="rounded=1;whiteSpace=wrap;html=1;" vertex="1" parent="1">
          <mxGeometry x="350" y="139.95" width="140" height="40" as="geometry" />
        </mxCell>
        <mxCell id="OPhc5zmEHg2Fb8m4xI22-30" value="" style="rounded=1;whiteSpace=wrap;html=1;labelPosition=center;verticalLabelPosition=middle;align=center;verticalAlign=middle;" vertex="1" parent="1">
          <mxGeometry x="620" y="129.95" width="180" height="200" as="geometry" />
        </mxCell>
        <mxCell id="OPhc5zmEHg2Fb8m4xI22-31" value="Application C" style="rounded=1;whiteSpace=wrap;html=1;" vertex="1" parent="1">
          <mxGeometry x="640" y="219.95" width="140" height="80" as="geometry" />
        </mxCell>
        <mxCell id="OPhc5zmEHg2Fb8m4xI22-32" value="Containerized Application" style="text;html=1;align=center;verticalAlign=middle;resizable=0;points=[];autosize=1;strokeColor=none;fillColor=none;" vertex="1" parent="1">
          <mxGeometry x="630" y="299.95" width="160" height="30" as="geometry" />
        </mxCell>
        <mxCell id="OPhc5zmEHg2Fb8m4xI22-33" value="" style="edgeStyle=orthogonalEdgeStyle;rounded=0;orthogonalLoop=1;jettySize=auto;html=1;startArrow=classic;startFill=1;strokeColor=#B3B3B3;" edge="1" parent="1" source="OPhc5zmEHg2Fb8m4xI22-35">
          <mxGeometry relative="1" as="geometry">
            <mxPoint x="710" y="219.95" as="targetPoint" />
          </mxGeometry>
        </mxCell>
        <mxCell id="OPhc5zmEHg2Fb8m4xI22-34" value="Mesh Control &amp;amp; Data Plane" style="edgeLabel;html=1;align=center;verticalAlign=middle;resizable=0;points=[];" vertex="1" connectable="0" parent="OPhc5zmEHg2Fb8m4xI22-33">
          <mxGeometry x="-0.0355" relative="1" as="geometry">
            <mxPoint y="1" as="offset" />
          </mxGeometry>
        </mxCell>
        <mxCell id="OPhc5zmEHg2Fb8m4xI22-35" value="Istio Sidecar" style="rounded=1;whiteSpace=wrap;html=1;" vertex="1" parent="1">
          <mxGeometry x="640" y="139.95" width="140" height="40" as="geometry" />
        </mxCell>
        <mxCell id="OPhc5zmEHg2Fb8m4xI22-78" value="" style="endArrow=none;html=1;rounded=0;" edge="1" parent="1">
          <mxGeometry width="50" height="50" relative="1" as="geometry">
            <mxPoint x="225" y="48" as="sourcePoint" />
            <mxPoint x="625" y="48" as="targetPoint" />
          </mxGeometry>
        </mxCell>
      </root>
    </mxGraphModel>
  </diagram>
</mxfile>
